<svg xmlns="http://www.w3.org/2000/svg" xmlns:xlink="http://www.w3.org/1999/xlink" version="1.1" x="0px" y="0px" viewBox="0 0 100 125" style="enable-background:new 0 0 100 100;" xml:space="preserve"><g><ellipse transform="matrix(0.7071 -0.7071 0.7071 0.7071 -46.9968 45.1397)" cx="31" cy="79.3" rx="1.5" ry="1.5"/><ellipse transform="matrix(0.7071 -0.7071 0.7071 0.7071 -41.5202 47.4082)" cx="36.5" cy="73.8" rx="1.5" ry="1.5"/><ellipse transform="matrix(0.7071 -0.7071 0.7071 0.7071 -36.0437 49.6766)" cx="41.9" cy="68.3" rx="1.5" ry="1.5"/><ellipse transform="matrix(0.7071 -0.7071 0.7071 0.7071 -30.567 51.9439)" cx="47.4" cy="62.9" rx="1.5" ry="1.5"/><ellipse transform="matrix(0.7071 -0.7071 0.7071 0.7071 -25.0906 54.2135)" cx="52.9" cy="57.4" rx="1.5" ry="1.5"/><ellipse transform="matrix(0.7071 -0.7071 0.7071 0.7071 -19.614 56.4831)" cx="58.4" cy="51.9" rx="1.5" ry="1.5"/><ellipse transform="matrix(0.7071 -0.7071 0.7071 0.7071 -14.1376 58.7504)" cx="63.8" cy="46.4" rx="1.5" ry="1.5"/><ellipse transform="matrix(0.7071 -0.7071 0.7071 0.7071 -37.8849 38.6318)" cx="27.7" cy="65" rx="1.5" ry="1.5"/><ellipse transform="matrix(0.7071 -0.7071 0.7071 0.7071 -32.4084 40.9002)" cx="33.2" cy="59.6" rx="1.5" ry="1.5"/><ellipse transform="matrix(0.7071 -0.7071 0.7071 0.7071 -26.932 43.1696)" cx="38.6" cy="54.1" rx="1.5" ry="1.5"/><ellipse transform="matrix(0.7071 -0.7071 0.7071 0.7071 -21.4553 45.4371)" cx="44.1" cy="48.6" rx="1.5" ry="1.5"/><ellipse transform="matrix(0.7071 -0.7071 0.7071 0.7071 -15.9788 47.7055)" cx="49.6" cy="43.1" rx="1.5" ry="1.5"/><ellipse transform="matrix(0.7071 -0.7071 0.7071 0.7071 -42.5837 41.8591)" cx="29.2" cy="72.3" rx="1.5" ry="1.5"/><ellipse transform="matrix(0.7071 -0.7071 0.7071 0.7071 -37.1071 44.1275)" cx="34.7" cy="66.9" rx="1.5" ry="1.5"/><ellipse transform="matrix(0.7071 -0.7071 0.7071 0.7071 -31.6308 46.397)" cx="40.2" cy="61.4" rx="1.5" ry="1.5"/><ellipse transform="matrix(0.7071 -0.7071 0.7071 0.7071 -26.154 48.6644)" cx="45.7" cy="55.9" rx="1.5" ry="1.5"/><ellipse transform="matrix(0.7071 -0.7071 0.7071 0.7071 -20.6775 50.9328)" cx="51.1" cy="50.4" rx="1.5" ry="1.5"/><ellipse transform="matrix(0.7071 -0.7071 0.7071 0.7071 -15.201 53.2013)" cx="56.6" cy="44.9" rx="1.5" ry="1.5"/><ellipse transform="matrix(0.7071 -0.7071 0.7071 0.7071 -33.3483 35.053)" cx="25.6" cy="57.8" rx="1.5" ry="1.5"/><ellipse transform="matrix(0.7071 -0.7071 0.7071 0.7071 -27.8718 37.3214)" cx="31.1" cy="52.3" rx="1.5" ry="1.5"/><ellipse transform="matrix(0.7071 -0.7071 0.7071 0.7071 -22.3953 39.5899)" cx="36.6" cy="46.8" rx="1.5" ry="1.5"/><ellipse transform="matrix(0.7071 -0.7071 0.7071 0.7071 -16.9188 41.8583)" cx="42.1" cy="41.4" rx="1.5" ry="1.5"/><path d="M80.1,30.3c-10-8.9-24.7-10.1-36.5-3.1c-2.9-0.8-6.2,0-8.4,2.2c-1.5,1.5-2.3,3.3-2.5,5.4c-0.7,0.3-1.3,0.7-1.8,1.2   C29,36,27.3,36.7,26,38c-1.3,1.3-2,3-2.1,4.8c-0.9,0.4-1.7,1-2.4,1.7c-0.9,0.9-1.5,1.9-2,3c-0.9,0.3-1.8,0.7-2.5,1.4   c-1.6,1.6-2.1,4-1.2,6c-0.1,0.1-0.1,0.1-0.2,0.2c-1.6,1.6-2.6,3.8-2.6,6.2c0,2.3,0.9,4.5,2.6,6.2c0.6,0.6,1.4,1.2,2.2,1.6   c0.8,5.9,3.2,11.5,7.3,16.2c1.4,1.6,3.4,2.5,5.5,2.6c0.1,0,0.2,0,0.2,0c2.1,0,4-0.8,5.4-2.3l42.5-42.5c0,0,0,0,0,0c0,0,0,0,0,0   l1.3-1.3c0.1-0.1,0.1-0.1,0.2-0.2l0.1-0.1c1.5-1.5,2.3-3.5,2.3-5.7C82.6,33.7,81.7,31.7,80.1,30.3z M78.8,31.8   c1.2,1.1,1.9,2.5,1.9,4.1c0,0.1,0,0.3,0,0.4c-0.3-1.2-0.9-2.3-1.8-3.2c-2.1-2.1-5.3-2.6-8-1.4c-0.1-0.1-0.2-0.3-0.4-0.4   c-1.8-1.8-4.6-2.4-7-1.6c-0.2-0.3-0.5-0.5-0.8-0.7c-2.6-2.1-6.2-2.4-9-0.7c-2.1-1.6-5.2-1.5-7.2,0.3c-0.2-0.2-0.4-0.3-0.7-0.5   C56.8,22.5,69.8,23.8,78.8,31.8z M27.4,39.4c1-1,2.4-1.5,3.9-1.5c0.3,0,0.6-0.1,0.8-0.3c0-0.1,0.1-0.1,0.2-0.2   c0.4-0.4,1-0.7,1.6-0.9c0.4-0.1,0.7-0.5,0.7-1c0-1.8,0.7-3.4,2-4.7c2.6-2.6,6.8-2.6,9.4-0.1c0.2,0.2,0.5,0.3,0.8,0.2   c0.3,0,0.6-0.2,0.7-0.4c0.1-0.1,0.2-0.2,0.3-0.3c1.3-1.3,3.7-1.4,5.1,0c0,0,0,0.1,0.1,0.1c0.3,0.4,0.9,0.4,1.3,0.1   c2.2-1.6,5.2-1.5,7.2,0.2c0.3,0.3,0.7,0.6,0.9,1c0.3,0.4,0.8,0.5,1.2,0.3c1.8-0.9,4-0.5,5.4,0.9c0.2,0.2,0.5,0.5,0.6,0.8   c0.1,0.2,0.4,0.4,0.6,0.4c0.3,0.1,0.5,0,0.8-0.1c2-1.3,4.6-1,6.3,0.7c1.7,1.7,1.9,4.4,0.6,6.4c-1,0.7-2.2,1.1-3.4,1.1   c-1.6,0-3.2-0.6-4.3-1.8c-5.5-5.5-13.2-8.3-21.5-7.9c-8,0.5-15.9,4-21.7,9.8c-0.4,0.4-0.8,0.8-1.2,1.3c0,0,0,0,0,0   C25.8,41.9,26.3,40.5,27.4,39.4z M17.1,66.1c-2.6-2.6-2.6-6.9,0-9.5c0.2-0.2,0.4-0.4,0.6-0.6c0.4-0.3,0.5-0.9,0.2-1.3   c-0.8-1.4-0.6-3.2,0.5-4.4c0.5-0.5,1.2-0.9,2-1c0.4-0.1,0.7-0.3,0.8-0.7c0.3-1.1,0.9-2,1.7-2.8c0.6-0.6,1.2-1,2-1.4   c-5.2,6.4-7.7,14.3-7.3,22C17.4,66.4,17.2,66.2,17.1,66.1z M35,84.2c-1.1,1.1-2.6,1.7-4.2,1.7c-1.6,0-3-0.7-4.1-1.9   c-10.1-11.5-9.3-29.2,1.9-40.4c5.4-5.4,12.9-8.8,20.4-9.2c7.7-0.4,14.8,2.1,20,7.3c1.5,1.5,3.6,2.4,5.7,2.4c0.2,0,0.4,0,0.5,0   L35,84.2z"/><path d="M95.8,37.6l0.5-0.5c0.4-0.4,0.4-1,0-1.4s-1-0.4-1.4,0l-0.5,0.5l-0.5-0.5c-0.4-0.4-1-0.4-1.4,0s-0.4,1,0,1.4l0.5,0.5   l-0.5,0.5c-0.4,0.4-0.4,1,0,1.4c0.2,0.2,0.5,0.3,0.7,0.3s0.5-0.1,0.7-0.3l0.5-0.5l0.5,0.5c0.2,0.2,0.5,0.3,0.7,0.3s0.5-0.1,0.7-0.3   c0.4-0.4,0.4-1,0-1.4L95.8,37.6z"/><path d="M24.1,19.3c0.2,0.2,0.5,0.3,0.7,0.3s0.5-0.1,0.7-0.3l0.5-0.5l0.5,0.5c0.2,0.2,0.5,0.3,0.7,0.3s0.5-0.1,0.7-0.3   c0.4-0.4,0.4-1,0-1.4l-0.5-0.5l0.5-0.5c0.4-0.4,0.4-1,0-1.4c-0.4-0.4-1-0.4-1.4,0L26,16l-0.5-0.5c-0.4-0.4-1-0.4-1.4,0   c-0.4,0.4-0.4,1,0,1.4l0.5,0.5l-0.5,0.5C23.7,18.3,23.7,19,24.1,19.3z"/><path d="M76.8,69.1h-0.7v-0.7c0-0.6-0.4-1-1-1s-1,0.4-1,1v0.7h-0.7c-0.6,0-1,0.4-1,1s0.4,1,1,1h0.7v0.7c0,0.6,0.4,1,1,1s1-0.4,1-1   v-0.7h0.7c0.6,0,1-0.4,1-1S77.4,69.1,76.8,69.1z"/><path d="M11.2,76.6c-0.4-0.4-1-0.4-1.4,0l-0.3,0.3l-0.3-0.3c-0.4-0.4-1-0.4-1.4,0s-0.4,1,0,1.4l0.3,0.3l-0.3,0.3   c-0.4,0.4-0.4,1,0,1.4c0.2,0.2,0.5,0.3,0.7,0.3s0.5-0.1,0.7-0.3l0.3-0.3l0.3,0.3c0.2,0.2,0.5,0.3,0.7,0.3s0.5-0.1,0.7-0.3   c0.4-0.4,0.4-1,0-1.4l-0.3-0.3l0.3-0.3C11.6,77.6,11.6,77,11.2,76.6z"/><path d="M75,13.6c0.2,0.2,0.5,0.3,0.7,0.3s0.5-0.1,0.7-0.3l0.3-0.3l0.3,0.3c0.2,0.2,0.5,0.3,0.7,0.3s0.5-0.1,0.7-0.3   c0.4-0.4,0.4-1,0-1.4l-0.3-0.3l0.3-0.3c0.4-0.4,0.4-1,0-1.4c-0.4-0.4-1-0.4-1.4,0l-0.3,0.3l-0.3-0.3c-0.4-0.4-1-0.4-1.4,0   c-0.4,0.4-0.4,1,0,1.4l0.3,0.3L75,12.2C74.6,12.6,74.6,13.2,75,13.6z"/><path d="M61.2,79.7c-1.8,0-3.3,1.5-3.3,3.3s1.5,3.3,3.3,3.3s3.3-1.5,3.3-3.3S63,79.7,61.2,79.7z M61.2,84.4c-0.7,0-1.3-0.6-1.3-1.3   s0.6-1.3,1.3-1.3s1.3,0.6,1.3,1.3S61.9,84.4,61.2,84.4z"/><path d="M85.5,79.1c-1.4,0-2.5,1.1-2.5,2.5s1.1,2.5,2.5,2.5c1.4,0,2.5-1.1,2.5-2.5S86.8,79.1,85.5,79.1z M85.5,82.1   c-0.3,0-0.5-0.2-0.5-0.5s0.2-0.5,0.5-0.5c0.3,0,0.5,0.2,0.5,0.5S85.7,82.1,85.5,82.1z"/><path d="M15.7,34.5c0-1.6-1.3-3-3-3s-3,1.3-3,3s1.3,3,3,3S15.7,36.1,15.7,34.5z M12.7,35.5c-0.5,0-1-0.4-1-1c0-0.5,0.4-1,1-1   s1,0.4,1,1C13.7,35,13.2,35.5,12.7,35.5z"/><ellipse transform="matrix(0.1101 -0.9939 0.9939 0.1101 -6.0112 28.1187)" cx="12.7" cy="17.4" rx="1.2" ry="1.2"/><ellipse transform="matrix(0.1101 -0.9939 0.9939 0.1101 -21.6752 150.3699)" cx="73.1" cy="87.3" rx="1.2" ry="1.2"/><ellipse transform="matrix(0.866 -0.5 0.5 0.866 -19.9594 43.0989)" cx="70.4" cy="58.8" rx="1.2" ry="1.2"/><ellipse transform="matrix(0.1101 -0.9939 0.9939 0.1101 16.5146 150.2863)" cx="92.2" cy="65.9" rx="1.2" ry="1.2"/><ellipse transform="matrix(0.1101 -0.9939 0.9939 0.1101 -56.3476 127.5667)" cx="43.1" cy="95.2" rx="1.2" ry="1.2"/><ellipse transform="matrix(0.1101 -0.9939 0.9939 0.1101 -7.9061 50.5034)" cx="24.2" cy="29.7" rx="1.2" ry="1.2"/><ellipse transform="matrix(0.5628 -0.8266 0.8266 0.5628 -48.2426 74.9331)" cx="46.7" cy="83.1" rx="1.2" ry="1.2"/><ellipse transform="matrix(0.5628 -0.8266 0.8266 0.5628 -51.2857 34.8726)" cx="7.3" cy="65.9" rx="1.2" ry="1.2"/><circle cx="23" cy="91.8" r="1.2"/><circle cx="61.2" cy="16.2" r="1.2"/><circle cx="45.5" cy="13.2" r="1.2"/><circle cx="36.3" cy="5.4" r="1.2"/><circle cx="88.1" cy="22.3" r="1.2"/><path d="M86.1,56.6c0.5,0,0.9-0.3,1-0.8c0.1-0.5-0.3-1.1-0.8-1.2l-3.4-0.6c-0.5-0.1-1.1,0.3-1.2,0.8c-0.1,0.5,0.3,1.1,0.8,1.2   l3.4,0.6C86,56.6,86.1,56.6,86.1,56.6z"/><path d="M55.2,8.1c0.1,0,0.1,0,0.2,0c0.5,0,0.9-0.3,1-0.8l0.6-3.4c0.1-0.5-0.3-1.1-0.8-1.2C55.6,2.7,55.1,3,55,3.6l-0.6,3.4   C54.3,7.5,54.6,8,55.2,8.1z"/><path d="M7.5,48.4c-0.3-0.4-0.9-0.6-1.4-0.2l-2.8,2c-0.4,0.3-0.6,0.9-0.2,1.4C3.3,51.8,3.6,52,3.9,52c0.2,0,0.4-0.1,0.6-0.2l2.8-2   C7.7,49.5,7.8,48.9,7.5,48.4z"/><path d="M61.3,73.6c0.1,0,0.1,0,0.2,0c0.5-0.1,0.9-0.6,0.8-1.1L62,70.8c-0.1-0.5-0.6-0.9-1.1-0.8c-0.5,0.1-0.9,0.6-0.8,1.1l0.3,1.7   C60.4,73.3,60.9,73.6,61.3,73.6z"/></g><text x="0" y="115" fill="#000000" font-size="5px" font-weight="bold" font-family="'Helvetica Neue', Helvetica, Arial-Unicode, Arial, Sans-serif">Created by Artem  Kovyazin</text><text x="0" y="120" fill="#000000" font-size="5px" font-weight="bold" font-family="'Helvetica Neue', Helvetica, Arial-Unicode, Arial, Sans-serif">from the Noun Project</text></svg>