<svg xmlns="http://www.w3.org/2000/svg" xmlns:xlink="http://www.w3.org/1999/xlink" version="1.1" x="0px" y="0px" viewBox="0 0 64 80" enable-background="new 0 0 64 64" xml:space="preserve"><path d="M47,9.5c0.553,0,1-0.448,1-1s-0.447-1-1-1s-1,0.448-1,1S46.447,9.5,47,9.5z M49,5.5c0.553,0,1-0.448,1-1s-0.447-1-1-1  s-1,0.448-1,1S48.447,5.5,49,5.5z M44.417,7.5c0.553,0,1-0.448,1-1s-0.447-1-1-1s-1,0.448-1,1S43.864,7.5,44.417,7.5z M52.833,6.5  c0.553,0,1-0.448,1-1s-0.447-1-1-1s-1,0.448-1,1S52.28,6.5,52.833,6.5z M40,52.5h3c0.553,0,1-0.447,1-1s-0.447-1-1-1h-3  c-0.553,0-1,0.447-1,1S39.447,52.5,40,52.5z M63,20.5H48v-1h1c0.553,0,1-0.448,1-1s-0.447-1-1-1h-3v-2h1c0.553,0,1-0.448,1-1  s-0.447-1-1-1H37c-0.553,0-1,0.448-1,1s0.447,1,1,1h1v2h-3c-0.553,0-1,0.448-1,1s0.447,1,1,1h1v1H26c-2.788,0-5.276,1.778-5.867,4  H19c-0.754,0-1.758,0.304-2.387,0.723l-4.336,2.891C11.537,28.606,11,29.61,11,30.5v0.586l-5.293,5.293C4.734,37.353,4,38.909,4,40  v1l-3.6,2.7C0.148,43.889,0,44.186,0,44.5v11c0,0.553,0.448,1,1,1h6.101c0.465,2.279,2.484,4,4.899,4s4.434-1.721,4.899-4h30.203  c0.464,2.279,2.484,4,4.898,4s4.435-1.721,4.898-4H63c0.553,0,1-0.447,1-1v-34C64,20.948,63.553,20.5,63,20.5z M6,40  c0-0.502,0.49-1.575,1.121-2.207l5.293-5.293H16v8H6V40z M2,47.5h3.382l-0.829,1.658C4.475,49.314,4.175,49.5,4,49.5H2V47.5z   M12,58.5c-1.654,0-3-1.346-3-3s1.346-3,3-3s3,1.346,3,3S13.654,58.5,12,58.5z M20,54.5h-3.101c0-0.001,0-0.002-0.001-0.003  c-0.003-0.018-0.012-0.034-0.015-0.052c-0.063-0.288-0.15-0.566-0.259-0.834c-0.039-0.095-0.091-0.182-0.136-0.273  c-0.089-0.184-0.181-0.363-0.29-0.533c-0.064-0.1-0.136-0.19-0.207-0.284c-0.111-0.149-0.227-0.294-0.354-0.43  c-0.083-0.089-0.171-0.172-0.261-0.255c-0.134-0.124-0.274-0.239-0.422-0.348c-0.098-0.073-0.196-0.144-0.3-0.209  c-0.159-0.101-0.324-0.187-0.494-0.269c-0.106-0.052-0.21-0.105-0.32-0.149c-0.192-0.076-0.392-0.133-0.594-0.186  c-0.1-0.025-0.194-0.061-0.296-0.08C12.642,50.536,12.325,50.5,12,50.5s-0.642,0.036-0.95,0.096c-0.102,0.02-0.196,0.055-0.296,0.08  c-0.203,0.053-0.402,0.109-0.594,0.186c-0.11,0.044-0.214,0.098-0.32,0.149c-0.169,0.082-0.335,0.168-0.494,0.269  c-0.104,0.065-0.202,0.136-0.3,0.209c-0.147,0.108-0.288,0.224-0.422,0.348c-0.09,0.083-0.177,0.166-0.261,0.255  c-0.127,0.136-0.243,0.28-0.354,0.43c-0.071,0.094-0.143,0.185-0.207,0.284c-0.109,0.17-0.201,0.35-0.29,0.533  c-0.044,0.092-0.097,0.179-0.136,0.273c-0.109,0.268-0.197,0.546-0.259,0.834c-0.003,0.018-0.012,0.034-0.015,0.052  c0,0.001-0.001,0.002-0.001,0.003H2v-3h2c0.938,0,1.922-0.608,2.342-1.447l1.553-3.105c0.155-0.31,0.138-0.678-0.044-0.973  S7.347,45.5,7,45.5H2V45l3.333-2.5H20V54.5z M20,40.5h-2v-8h2V40.5z M20,30.5h-7c0-0.217,0.206-0.602,0.387-0.723l4.336-2.891  C18.016,26.691,18.648,26.5,19,26.5h1V30.5z M43,15.5h1v2h-1V15.5z M40,15.5h1v2h-1V15.5z M38,19.5h8v1h-8V19.5z M52,58.5  c-1.654,0-3-1.346-3-3s1.346-3,3-3s3,1.346,3,3S53.654,58.5,52,58.5z M62,54.5h-5.101c0-0.001-0.001-0.002-0.001-0.003  c-0.004-0.018-0.012-0.034-0.016-0.053c-0.063-0.287-0.149-0.565-0.259-0.832c-0.039-0.096-0.092-0.184-0.138-0.277  c-0.088-0.182-0.179-0.361-0.288-0.53c-0.063-0.1-0.137-0.19-0.208-0.285c-0.111-0.148-0.227-0.293-0.354-0.429  c-0.083-0.089-0.171-0.172-0.261-0.255c-0.135-0.124-0.274-0.239-0.422-0.349c-0.099-0.072-0.196-0.143-0.3-0.208  c-0.159-0.101-0.325-0.187-0.495-0.269c-0.106-0.052-0.209-0.105-0.318-0.149c-0.192-0.076-0.394-0.133-0.596-0.186  c-0.1-0.025-0.194-0.061-0.295-0.08C52.642,50.536,52.325,50.5,52,50.5s-0.642,0.036-0.95,0.096c-0.101,0.02-0.195,0.055-0.295,0.08  c-0.202,0.053-0.403,0.109-0.596,0.186c-0.109,0.044-0.212,0.098-0.318,0.149c-0.17,0.082-0.336,0.168-0.495,0.269  c-0.104,0.065-0.201,0.136-0.3,0.208c-0.147,0.109-0.287,0.225-0.422,0.349c-0.09,0.083-0.178,0.166-0.261,0.255  c-0.127,0.136-0.242,0.28-0.354,0.429c-0.071,0.095-0.145,0.186-0.208,0.285c-0.109,0.169-0.2,0.349-0.288,0.53  c-0.046,0.094-0.099,0.182-0.138,0.277c-0.109,0.267-0.196,0.545-0.259,0.832c-0.004,0.019-0.012,0.035-0.016,0.053  c0,0.001-0.001,0.002-0.001,0.003H22v-2h13c0.553,0,1-0.447,1-1s-0.447-1-1-1H22v-2h40V54.5z M62,46.5H22v-21c0-1.387,1.747-3,4-3  h36V46.5z M25.072,26.128l-1.926,4.815c-0.021,0.037-0.031,0.079-0.047,0.118l-0.027,0.067c-0.009,0.022-0.011,0.046-0.019,0.069  c-0.009,0.036-0.029,0.066-0.034,0.103c-0.002,0.014-0.002,0.027-0.004,0.041c-0.004,0.024-0.005,0.048-0.007,0.072  C23.006,31.443,23,31.475,23,31.5c0,0.021,0.006,0.042,0.006,0.063c0.002,0.028,0.004,0.055,0.008,0.083  c0.066,1.793,1.311,3.277,2.985,3.713V40.5h-1c-0.552,0-1,0.447-1,1s0.448,1,1,1h34c0.553,0,1-0.447,1-1s-0.447-1-1-1h-1v-5.142  c1.674-0.436,2.918-1.919,2.985-3.711c0.004-0.029,0.007-0.058,0.009-0.087c0-0.021,0.006-0.04,0.006-0.061  c0-0.025-0.006-0.057-0.008-0.086c-0.002-0.024-0.003-0.047-0.007-0.071c-0.002-0.013-0.002-0.026-0.004-0.039  c-0.005-0.036-0.024-0.065-0.033-0.1c-0.008-0.025-0.01-0.051-0.02-0.076l-0.028-0.07c-0.016-0.038-0.024-0.077-0.045-0.112  l-1.927-4.818C58.776,25.749,58.409,25.5,58,25.5H26C25.591,25.5,25.224,25.749,25.072,26.128z M27.626,33.39  c-0.044,0.015-0.087,0.03-0.132,0.041C27.335,33.472,27.171,33.5,27,33.5c-0.737,0-1.375-0.405-1.722-1h3.443c0,0,0,0.001,0,0.001  c-0.065,0.11-0.14,0.215-0.224,0.311c-0.021,0.024-0.04,0.052-0.062,0.075c-0.109,0.113-0.232,0.212-0.365,0.297  c-0.033,0.021-0.068,0.036-0.103,0.056C27.86,33.3,27.746,33.35,27.626,33.39z M57,33.5c-0.171,0-0.335-0.028-0.493-0.069  c-0.046-0.012-0.089-0.026-0.134-0.041c-0.119-0.04-0.232-0.09-0.341-0.15c-0.034-0.02-0.07-0.035-0.104-0.057  c-0.133-0.084-0.255-0.184-0.364-0.296c-0.021-0.022-0.039-0.049-0.06-0.072c-0.086-0.098-0.161-0.202-0.227-0.314h3.443  C58.375,33.095,57.737,33.5,57,33.5z M57.323,27.5l1.176,2.94h-3.746l-0.784-2.94H57.323z M51.898,27.5l0.784,2.94h-3.815  l-0.229-1.723L48.476,27.5H51.898z M52.722,32.5c-0.046,0.078-0.103,0.148-0.158,0.219c-0.043,0.056-0.078,0.116-0.127,0.167  l-0.001,0.001c-0.076,0.078-0.166,0.141-0.254,0.207c-0.043,0.031-0.081,0.069-0.127,0.099c-0.028,0.018-0.059,0.031-0.087,0.047  c-0.085,0.048-0.177,0.084-0.269,0.118c-0.028,0.011-0.054,0.025-0.083,0.035c-0.041,0.014-0.081,0.027-0.123,0.038  C51.335,33.472,51.171,33.5,51,33.5s-0.335-0.028-0.493-0.069c-0.042-0.011-0.082-0.024-0.123-0.038  c-0.029-0.01-0.055-0.024-0.083-0.035c-0.092-0.034-0.184-0.07-0.269-0.118c-0.028-0.016-0.059-0.029-0.087-0.047  c-0.046-0.029-0.084-0.067-0.127-0.099c-0.088-0.066-0.178-0.129-0.254-0.207l-0.001-0.001c-0.049-0.051-0.084-0.111-0.127-0.167  c-0.056-0.07-0.112-0.141-0.158-0.219H52.722z M43,27.5h3.457l0.238,1.783l0.154,1.157H43V27.5z M46.722,32.5  c-0.046,0.078-0.103,0.148-0.158,0.219c-0.043,0.056-0.078,0.116-0.127,0.167l-0.001,0.001c-0.076,0.078-0.166,0.141-0.254,0.207  c-0.043,0.031-0.081,0.069-0.127,0.099c-0.028,0.018-0.059,0.031-0.087,0.047c-0.085,0.048-0.177,0.084-0.269,0.118  c-0.028,0.011-0.054,0.025-0.083,0.035c-0.041,0.014-0.081,0.027-0.123,0.038C45.335,33.472,45.171,33.5,45,33.5  s-0.335-0.028-0.493-0.069c-0.042-0.011-0.082-0.024-0.123-0.038c-0.029-0.01-0.055-0.024-0.083-0.035  c-0.092-0.034-0.184-0.07-0.269-0.118c-0.028-0.016-0.059-0.029-0.087-0.047c-0.046-0.029-0.084-0.067-0.127-0.099  c-0.088-0.066-0.178-0.129-0.254-0.207l-0.001-0.001c-0.049-0.051-0.084-0.111-0.127-0.167c-0.056-0.07-0.112-0.141-0.158-0.219  H46.722z M37.366,28.817l0.176-1.317H41v2.94h-3.85L37.366,28.817z M40.722,32.5c-0.046,0.078-0.103,0.148-0.158,0.219  c-0.043,0.056-0.078,0.116-0.127,0.167l-0.001,0.001c-0.076,0.078-0.166,0.141-0.254,0.207c-0.043,0.031-0.081,0.069-0.127,0.099  c-0.028,0.018-0.059,0.031-0.087,0.047c-0.085,0.048-0.177,0.084-0.269,0.118c-0.028,0.011-0.054,0.025-0.083,0.035  c-0.041,0.014-0.081,0.027-0.123,0.038C39.335,33.472,39.171,33.5,39,33.5s-0.335-0.028-0.493-0.069  c-0.042-0.011-0.082-0.024-0.123-0.038c-0.029-0.01-0.055-0.024-0.083-0.035c-0.092-0.034-0.184-0.07-0.269-0.118  c-0.028-0.016-0.059-0.029-0.087-0.047c-0.046-0.029-0.084-0.067-0.127-0.099c-0.088-0.066-0.178-0.129-0.254-0.207l-0.001-0.001  c-0.049-0.051-0.084-0.111-0.127-0.167c-0.056-0.07-0.112-0.14-0.157-0.218L40.722,32.5z M31.914,28.203l0.188-0.703h3.423  L35.3,29.184l-0.168,1.256h-3.814L31.914,28.203z M34.721,32.501c-0.045,0.078-0.102,0.147-0.157,0.218  c-0.043,0.056-0.078,0.116-0.127,0.167l-0.001,0.001c-0.076,0.078-0.166,0.141-0.254,0.207c-0.043,0.031-0.081,0.069-0.127,0.099  c-0.028,0.018-0.059,0.031-0.087,0.047c-0.085,0.048-0.177,0.084-0.269,0.118c-0.028,0.011-0.054,0.025-0.083,0.035  c-0.041,0.014-0.081,0.027-0.123,0.038C33.335,33.472,33.171,33.5,33,33.5s-0.335-0.028-0.494-0.069  c-0.042-0.011-0.081-0.024-0.121-0.037c-0.032-0.011-0.06-0.027-0.091-0.039c-0.09-0.034-0.179-0.069-0.262-0.115  c-0.028-0.016-0.058-0.029-0.084-0.046c-0.05-0.031-0.093-0.073-0.14-0.109c-0.083-0.063-0.17-0.121-0.242-0.196  c-0.053-0.055-0.092-0.12-0.138-0.181c-0.052-0.067-0.105-0.133-0.148-0.206l0-0.001L34.721,32.501z M30.432,34.541  c0.084,0.071,0.165,0.146,0.255,0.21c0.133,0.095,0.276,0.173,0.42,0.251c0.093,0.05,0.18,0.107,0.277,0.15  c0.166,0.073,0.341,0.124,0.517,0.175c0.088,0.025,0.17,0.062,0.26,0.081C32.433,35.467,32.712,35.5,33,35.5  s0.567-0.033,0.839-0.092c0.089-0.02,0.171-0.056,0.258-0.08c0.177-0.051,0.354-0.102,0.52-0.176c0.096-0.043,0.183-0.1,0.274-0.149  c0.146-0.079,0.29-0.157,0.424-0.253c0.09-0.063,0.169-0.137,0.252-0.208c0.121-0.103,0.24-0.205,0.349-0.321  c0.026-0.028,0.06-0.049,0.085-0.078c0.025,0.029,0.059,0.05,0.085,0.078c0.108,0.116,0.228,0.219,0.349,0.321  c0.083,0.071,0.162,0.145,0.252,0.208c0.134,0.096,0.278,0.174,0.424,0.253c0.092,0.05,0.179,0.106,0.274,0.149  c0.166,0.074,0.343,0.125,0.52,0.176c0.087,0.024,0.169,0.061,0.258,0.08C38.433,35.467,38.712,35.5,39,35.5  s0.567-0.033,0.839-0.092c0.089-0.02,0.171-0.056,0.258-0.08c0.177-0.051,0.354-0.102,0.52-0.176c0.096-0.043,0.183-0.1,0.274-0.149  c0.146-0.079,0.29-0.157,0.424-0.253c0.09-0.063,0.169-0.137,0.252-0.208c0.121-0.103,0.24-0.205,0.349-0.321  c0.026-0.028,0.06-0.049,0.085-0.078c0.025,0.029,0.059,0.05,0.085,0.078c0.108,0.116,0.228,0.219,0.349,0.321  c0.083,0.071,0.162,0.145,0.252,0.208c0.134,0.096,0.278,0.174,0.424,0.253c0.092,0.05,0.179,0.106,0.274,0.149  c0.166,0.074,0.343,0.125,0.52,0.176c0.087,0.024,0.169,0.061,0.258,0.08C44.433,35.467,44.712,35.5,45,35.5  s0.567-0.033,0.839-0.092c0.089-0.02,0.171-0.056,0.258-0.08c0.177-0.051,0.354-0.102,0.52-0.176c0.096-0.043,0.183-0.1,0.274-0.149  c0.146-0.079,0.29-0.157,0.424-0.253c0.09-0.063,0.169-0.137,0.252-0.208c0.121-0.103,0.24-0.205,0.349-0.321  c0.026-0.028,0.06-0.049,0.085-0.078c0.025,0.029,0.059,0.05,0.085,0.078c0.108,0.116,0.228,0.219,0.349,0.321  c0.083,0.071,0.162,0.145,0.252,0.208c0.134,0.096,0.278,0.174,0.424,0.253c0.092,0.05,0.179,0.106,0.274,0.149  c0.166,0.074,0.343,0.125,0.52,0.176c0.087,0.024,0.169,0.061,0.258,0.08C50.433,35.467,50.712,35.5,51,35.5  s0.567-0.033,0.839-0.092c0.089-0.02,0.171-0.056,0.258-0.08c0.177-0.051,0.354-0.102,0.52-0.176c0.096-0.043,0.183-0.1,0.274-0.149  c0.146-0.079,0.29-0.157,0.424-0.253c0.09-0.063,0.169-0.137,0.252-0.208c0.121-0.103,0.24-0.205,0.349-0.321  c0.026-0.028,0.06-0.049,0.085-0.078c0.033,0.037,0.072,0.068,0.106,0.104c0.054,0.056,0.109,0.109,0.166,0.162  c0.121,0.114,0.249,0.219,0.383,0.316c0.057,0.041,0.11,0.085,0.169,0.122c0.194,0.127,0.397,0.242,0.613,0.334  c0.018,0.007,0.036,0.011,0.054,0.019c0.165,0.067,0.334,0.128,0.509,0.173V40.5H28v-5.127c0.175-0.045,0.344-0.105,0.509-0.174  c0.018-0.007,0.036-0.011,0.054-0.018c0.216-0.092,0.419-0.207,0.614-0.334c0.058-0.037,0.111-0.08,0.167-0.121  c0.135-0.099,0.264-0.203,0.385-0.318c0.056-0.053,0.111-0.104,0.165-0.161c0.034-0.036,0.074-0.067,0.107-0.104  c0.026,0.029,0.059,0.051,0.086,0.079C30.193,34.337,30.312,34.438,30.432,34.541z M30.031,27.5l-0.784,2.94h-3.747l1.176-2.94  H30.031z M42,11.5c0.553,0,1-0.448,1-1s-0.447-1-1-1s-1,0.448-1,1S41.447,11.5,42,11.5z"/><text x="0" y="79" fill="#000000" font-size="5px" font-weight="bold" font-family="'Helvetica Neue', Helvetica, Arial-Unicode, Arial, Sans-serif">Created by Stefan Mihaylov</text><text x="0" y="84" fill="#000000" font-size="5px" font-weight="bold" font-family="'Helvetica Neue', Helvetica, Arial-Unicode, Arial, Sans-serif">from the Noun Project</text></svg>