<svg xmlns="http://www.w3.org/2000/svg" viewBox="0 0 100 125" x="0px" y="0px"><title>SCHOOL_ICONS_100</title><path d="M93.35,22.75H89.51c-.28-5.26-2.48-9.1-5.45-9.28h-.21c-3,0-5.37,3.92-5.66,9.29h-3.9c-.28-5.26-2.48-9.1-5.45-9.28h-.21c-3,0-5.37,3.92-5.66,9.29h-3.9c-.28-5.26-2.48-9.1-5.45-9.28h-.21c-3,0-5.37,3.92-5.66,9.29h-3.9c-.28-5.26-2.48-9.1-5.45-9.28h-.21c-3,0-5.37,3.92-5.66,9.29h-3.9c-.28-5.26-2.48-9.1-5.45-9.28H23c-3,0-5.37,3.92-5.66,9.29H6.85a1.5,1.5,0,0,0-1.5,1.5V85a1.5,1.5,0,0,0,1.5,1.5h86.5a1.5,1.5,0,0,0,1.5-1.5V24.25A1.5,1.5,0,0,0,93.35,22.75Zm-9.46-6.29c.83.05,2.37,2.3,2.62,6.29h-5.3C81.46,18.83,83,16.47,83.89,16.47ZM80.66,30.81A1.67,1.67,0,1,1,79,32.48,1.68,1.68,0,0,1,80.66,30.81Zm-12-14.34c.83.05,2.37,2.3,2.62,6.29H66C66.24,18.83,67.77,16.47,68.67,16.47ZM65.44,30.81a1.67,1.67,0,1,1-1.69,1.67A1.68,1.68,0,0,1,65.44,30.81Zm-12-14.34c.83.05,2.37,2.3,2.62,6.29h-5.3C51,18.83,52.55,16.47,53.45,16.47ZM50.22,30.81a1.67,1.67,0,1,1-1.69,1.67A1.68,1.68,0,0,1,50.22,30.81Zm-12-14.34c.83.05,2.37,2.3,2.62,6.29h-5.3C35.8,18.83,37.33,16.47,38.23,16.47ZM35,30.81a1.67,1.67,0,1,1-1.69,1.67A1.68,1.68,0,0,1,35,30.81ZM23,16.47c.83.05,2.37,2.3,2.62,6.29h-5.3C20.58,18.83,22.11,16.47,23,16.47ZM19.78,30.81a1.67,1.67,0,1,1-1.69,1.67A1.68,1.68,0,0,1,19.78,30.81ZM91.85,83.53H8.35V25.75h9a18,18,0,0,0,.4,2.52,4.68,4.68,0,1,0,3-.35,14.17,14.17,0,0,1-.4-2.17H32.6a18,18,0,0,0,.4,2.52,4.68,4.68,0,1,0,3-.35,14.21,14.21,0,0,1-.4-2.17h12.2a18,18,0,0,0,.4,2.52,4.68,4.68,0,1,0,3-.35,14.17,14.17,0,0,1-.4-2.17H63a18,18,0,0,0,.4,2.52,4.68,4.68,0,1,0,3-.35,14.21,14.21,0,0,1-.4-2.17h12.2a18,18,0,0,0,.4,2.52,4.68,4.68,0,1,0,3-.35,14.15,14.15,0,0,1-.4-2.17H91.85Z"/><path d="M15.31,43.5a1.5,1.5,0,0,0-1.5,1.5V78.67a1.5,1.5,0,0,0,1.5,1.5H85.48a1.5,1.5,0,0,0,1.5-1.5V45a1.5,1.5,0,0,0-1.5-1.5ZM48.5,54.67v5.67H34V54.67Zm-14.5-3V46.5H48.5v5.17Zm-3,8.67H16.81V54.67H31Zm-14.19,3H31v5.4H16.81Zm17.19,0H48.5v5.4H34Zm14.5,8.4v5.43H34V71.73Zm3,0H66.33v5.43H51.5Zm0-3v-5.4H66.33v5.4Zm17.83-5.4H83.67a1.5,1.5,0,0,0,.31,0v5.43H69.33Zm14.64-3a1.5,1.5,0,0,0-.31,0H69.33V54.67H83.67a1.5,1.5,0,0,0,.31,0Zm-17.64,0H51.5V54.67H66.33ZM51.5,51.67V46.5H66.33v5.17ZM31,46.5v5.17H16.81V46.5ZM16.81,71.73H31v5.43H16.81Zm52.52,5.43V71.73H84v5.43ZM84,51.7a1.5,1.5,0,0,0-.31,0H69.33V46.5H84Z"/><text x="0" y="115" fill="#000000" font-size="5px" font-weight="bold" font-family="'Helvetica Neue', Helvetica, Arial-Unicode, Arial, Sans-serif">Created by Postcat</text><text x="0" y="120" fill="#000000" font-size="5px" font-weight="bold" font-family="'Helvetica Neue', Helvetica, Arial-Unicode, Arial, Sans-serif">from the Noun Project</text></svg>