<svg xmlns="http://www.w3.org/2000/svg" data-name="Layer 1" viewBox="0 0 100 125" x="0px" y="0px"><title>04</title><path d="M36.56,34.15A14.25,14.25,0,1,0,14,45.66H9.11V89H72.3V76.67l19.63,9.75V47.25L72.3,57V45.66H63.95a18.5,18.5,0,1,0-17.93,0H30.68A14.22,14.22,0,0,0,36.56,34.15ZM55,17a12.5,12.5,0,1,1-12.5,12.5A12.51,12.51,0,0,1,55,17Zm30.94,40v19.8L72.3,70V63.72ZM66.3,83H15.11V51.66H66.3Zm-44-57.11a8.25,8.25,0,1,1-8.25,8.25A8.25,8.25,0,0,1,22.32,25.91Z"/><text x="0" y="115" fill="#000000" font-size="5px" font-weight="bold" font-family="'Helvetica Neue', Helvetica, Arial-Unicode, Arial, Sans-serif">Created by Trendy</text><text x="0" y="120" fill="#000000" font-size="5px" font-weight="bold" font-family="'Helvetica Neue', Helvetica, Arial-Unicode, Arial, Sans-serif">from the Noun Project</text></svg>