<svg xmlns="http://www.w3.org/2000/svg" xmlns:xlink="http://www.w3.org/1999/xlink" version="1.1" x="0px" y="0px" viewBox="0 0 100 125" enable-background="new 0 0 100 100" xml:space="preserve"><path d="M18.211,40.221l8.265,29.062c0.003,0.01,0.003,0.02,0.005,0.029l2.52,8.85  c0,0.001,0.001,0.002,0.001,0.004l2.099,7.383c0.181,0.638,0.608,1.178,1.188,1.5c0.375,0.209,0.795,0.316,1.217,0.316  c0.229,0,0.459-0.031,0.684-0.096L72.13,76.48c1.328-0.377,2.099-1.76,1.721-3.088l-2.097-7.377  c-0.001-0.004-0.001-0.009-0.002-0.013l-1.306-4.598l11.302-32.487c0.218-0.626,0.178-1.313-0.111-1.91  c-0.288-0.597-0.803-1.055-1.429-1.272l-37.26-12.96c-1.302-0.454-2.729,0.236-3.183,1.54l-6.632,19.059l-13.2,3.754  c-0.832,0.237-1.444,0.867-1.693,1.631C18.089,39.217,18.069,39.722,18.211,40.221z M37.078,37.454  c0.157,1.812-0.227,3.632-1.129,5.257c-1.198,2.149-3.159,3.703-5.522,4.375c-1.683,0.479-3.415,0.473-5.066-0.008l-1.655-5.821  L37.078,37.454z M35.761,71.657l-1.257,2.336l-0.193,0.055l-1.186,0.337l-1.555-5.469l4.188-7.787l4.326,2.493L35.761,71.657z   M55.018,46.426l7.135,4.107l3.234,11.368l0.87,3.063l-25.049,7.123l1.081-2.009L55.018,46.426z M60.191,43.635l-4.908-2.825  c-0.585-0.337-1.281-0.421-1.932-0.238c-0.649,0.185-1.196,0.625-1.517,1.219l-9.379,17.426l-6.433-3.707  c-0.585-0.338-1.283-0.425-1.933-0.238c-0.649,0.185-1.197,0.625-1.518,1.22l-2.968,5.517l-2.738-9.629  c0.35,0.026,0.7,0.053,1.051,0.053c1.305,0,2.609-0.178,3.875-0.538c3.648-1.037,6.675-3.435,8.524-6.755  c1.552-2.796,2.098-5.959,1.614-9.067l14.903-4.238L60.191,43.635z M35.226,81.775l-0.733-2.578l33.131-9.422l0.734,2.581  L35.226,81.775z M43.666,18.319l32.537,11.317l-8.138,23.392l-1.374-4.835c-0.003-0.01-0.009-0.02-0.012-0.03L60.96,28.062  c-0.043-0.153-0.104-0.297-0.172-0.435c-0.022-0.045-0.05-0.086-0.075-0.13c-0.052-0.089-0.106-0.176-0.167-0.257  c-0.034-0.046-0.071-0.089-0.109-0.132c-0.062-0.071-0.127-0.138-0.197-0.202c-0.042-0.039-0.084-0.077-0.129-0.113  c-0.077-0.061-0.158-0.115-0.242-0.167c-0.043-0.027-0.083-0.056-0.128-0.08c-0.127-0.069-0.259-0.128-0.397-0.174  c-0.031-0.01-0.064-0.014-0.095-0.024c-0.111-0.032-0.223-0.059-0.338-0.076c-0.056-0.008-0.112-0.01-0.169-0.014  c-0.062-0.005-0.123-0.015-0.186-0.015c-0.022,0-0.044,0.009-0.066,0.009c-0.205,0.005-0.412,0.028-0.619,0.086l-18.865,5.365  L43.666,18.319z"/><path d="M60.395,63.936c0.66,0,1.3-0.271,1.77-0.73c0.46-0.47,0.73-1.109,0.73-1.77s-0.271-1.3-0.73-1.771  c-0.93-0.93-2.609-0.93-3.54,0c-0.46,0.471-0.729,1.11-0.729,1.771s0.27,1.3,0.729,1.77C59.095,63.666,59.735,63.936,60.395,63.936z  "/><text x="0" y="115" fill="#000000" font-size="5px" font-weight="bold" font-family="'Helvetica Neue', Helvetica, Arial-Unicode, Arial, Sans-serif">Created by Mark Jayvee Pabilonia</text><text x="0" y="120" fill="#000000" font-size="5px" font-weight="bold" font-family="'Helvetica Neue', Helvetica, Arial-Unicode, Arial, Sans-serif">from the Noun Project</text></svg>