<svg xmlns="http://www.w3.org/2000/svg" data-name="Layer 1" viewBox="0 0 100 125" x="0px" y="0px"><title>Artboard 27</title><path d="M80.8,40.67a2.5,2.5,0,0,0-2.5-2.5H17.44a2.5,2.5,0,0,0,0,5H78.3A2.5,2.5,0,0,0,80.8,40.67Z"/><path d="M33.33,3.5h-7.2a5.36,5.36,0,0,0-5.35,5.35V14H11.49A7.5,7.5,0,0,0,4,21.54v49a2.5,2.5,0,0,0,.73,1.77L24.18,91.79a2.5,2.5,0,0,0,1.77.73H51a2.5,2.5,0,0,0,0-5H29.67V74.34a7.5,7.5,0,0,0-7.49-7.49H9V21.54A2.49,2.49,0,0,1,11.49,19h9.29v4.17a5.36,5.36,0,0,0,5.35,5.35h7.2a5.36,5.36,0,0,0,5.35-5.35V19H57.07v4.17a5.36,5.36,0,0,0,5.35,5.35h7.2A5.36,5.36,0,0,0,75,23.22V19h9.29a2.49,2.49,0,0,1,2.49,2.49V54.71a2.5,2.5,0,0,0,5,0V21.54A7.5,7.5,0,0,0,84.26,14H75V8.85A5.36,5.36,0,0,0,69.61,3.5h-7.2a5.36,5.36,0,0,0-5.35,5.35V14H38.68V8.85A5.36,5.36,0,0,0,33.33,3.5ZM24.67,74.34V85.2L11.32,71.85H22.18A2.49,2.49,0,0,1,24.67,74.34ZM62.07,8.85a.35.35,0,0,1,.35-.35h7.2a.35.35,0,0,1,.35.35V23.22a.35.35,0,0,1-.35.35h-7.2a.35.35,0,0,1-.35-.35ZM33.68,23.22a.35.35,0,0,1-.35.35h-7.2a.35.35,0,0,1-.35-.35V8.85a.35.35,0,0,1,.35-.35h7.2a.35.35,0,0,1,.35.35Z"/><path d="M96,71.73a5,5,0,0,0-1.48-3.58l-4.47-4.47a5.06,5.06,0,0,0-7.16,0L71.23,75.35l-4.46-4.46a5.06,5.06,0,0,0-7.16,0l-4.47,4.47a5.06,5.06,0,0,0,0,7.16L67.65,95a5.06,5.06,0,0,0,7.16,0L94.52,75.3A5,5,0,0,0,96,71.73ZM73.5,89.25l-2.32,2.23L58.68,78.89l4.55-4.47,6.23,6.23a2.5,2.5,0,0,0,3.54,0L86.43,67.22h.08L91,71.77Z"/><text x="0" y="115" fill="#000000" font-size="5px" font-weight="bold" font-family="'Helvetica Neue', Helvetica, Arial-Unicode, Arial, Sans-serif">Created by Gregor Cresnar</text><text x="0" y="120" fill="#000000" font-size="5px" font-weight="bold" font-family="'Helvetica Neue', Helvetica, Arial-Unicode, Arial, Sans-serif">from the Noun Project</text></svg>